<svg xmlns="http://www.w3.org/2000/svg" viewBox="0 0 48 56" width="48" height="56">
  <title>Concept B  Shadow Wedge</title>
  <ellipse cx="24" cy="54" rx="12" ry="2" fill="#1a1a2e" opacity="0.12"/>
  <!-- lean body -->
  <path d="M20 26 L30 24 L28 44 L18 44 Z" fill="#1e1e28"/>
  <rect x="17" y="42" width="5" height="7" rx="1" fill="#14141c"/>
  <rect x="24" y="42" width="5" height="7" rx="1" fill="#14141c"/>
  <!-- pointed hood -->
  <path d="M24 6 L36 22 L32 28 L16 28 L12 22 Z" fill="#232330"/>
  <path d="M24 8 L34 21 L30 26 L18 26 L14 21 Z" fill="#2a2a38"/>
  <!-- scarf tail (red accent) -->
  <path d="M32 24 L40 20 L38 26 L32 28 Z" fill="#c45c3e"/>
  <!-- eye slit -->
  <rect x="18" y="20" width="12" height="2" rx="1" fill="#8ec8dc" opacity="0.75"/>
  <!-- katana -->
  <line x1="30" y1="28" x2="44" y2="34" stroke="#45455a" stroke-width="1.2" stroke-linecap="round"/>
  <rect x="28" y="26" width="2.5" height="5" fill="#3a3a48"/>
</svg>
