<svg xmlns="http://www.w3.org/2000/svg" viewBox="0 0 24 28" shape-rendering="crispEdges">
  <title>R2 SNES Chunk  idle</title>
  <rect width="24" height="28" fill="none"/>
  <rect x="8" y="27" width="9" height="1" fill="#12121a" opacity="0.25"/>
  <!-- pointed hood -->
  <rect x="11" y="3" width="2" height="1" fill="#252530"/>
  <rect x="10" y="4" width="4" height="1" fill="#252530"/>
  <rect x="9" y="5" width="6" height="1" fill="#252530"/>
  <rect x="7" y="6" width="10" height="2" fill="#b84e38"/>
  <rect x="6" y="8" width="12" height="5" fill="#252530"/>
  <rect x="7" y="13" width="10" height="1" fill="#12121a"/>
  <!-- eyes (wide spacing) -->
  <rect x="8" y="10" width="1" height="1" fill="#6a8a96"/>
  <rect x="15" y="10" width="1" height="1" fill="#6a8a96"/>
  <!-- scarf tail -->
  <rect x="16" y="12" width="2" height="1" fill="#b84e38"/>
  <rect x="18" y="13" width="2" height="1" fill="#b84e38"/>
  <!-- wedge body -->
  <rect x="8" y="14" width="8" height="5" fill="#252530"/>
  <rect x="7" y="19" width="10" height="2" fill="#12121a"/>
  <rect x="9" y="21" width="2" height="5" fill="#12121a"/>
  <rect x="13" y="21" width="2" height="5" fill="#12121a"/>
  <rect x="17" y="15" width="4" height="1" fill="#252530"/>
</svg>
